<?xml version="1.0" standalone="no"?>
<!DOCTYPE svg PUBLIC "-//W3C//DTD SVG 20010904//EN"
 "http://www.w3.org/TR/2001/REC-SVG-20010904/DTD/svg10.dtd">
<svg version="1.0" xmlns="http://www.w3.org/2000/svg"
 width="250.000000pt" height="250.000000pt" viewBox="0 0 250.000000 250.000000"
 preserveAspectRatio="xMidYMid meet">

<g transform="translate(0.000000,250.000000) scale(0.100000,-0.100000)"
fill="#000000" stroke="none">
<path d="M177 2094 c-4 -4 -7 -180 -7 -391 l0 -383 175 0 175 0 0 144 0 145
33 -10 c59 -16 95 -89 112 -226 l7 -53 54 0 54 0 0 -195 0 -195 175 0 175 0 2
191 3 191 60 -71 60 -71 67 72 67 73 1 -192 0 -193 66 0 65 0 -6 -53 c-14
-109 34 -252 112 -332 45 -46 119 -83 202 -101 69 -14 323 -19 419 -8 l52 7 0
208 0 209 -170 0 -170 0 0 -60 c0 -57 -1 -60 -24 -60 -44 0 -77 19 -91 52 -18
44 -9 80 26 114 42 40 121 45 216 11 l71 -24 78 110 c44 61 81 115 82 119 5
12 -111 62 -193 84 -92 24 -280 25 -344 1 -24 -10 -45 -17 -47 -17 -2 0 -4
117 -4 260 l0 260 -164 0 -164 0 -67 -77 c-37 -43 -71 -79 -75 -81 -4 -2 -38
33 -75 78 l-68 80 -104 0 -104 0 19 28 c82 118 36 272 -100 333 -51 23 -62 24
-348 27 -163 2 -299 0 -303 -4z m427 -186 c17 -24 21 -65 8 -84 -11 -16 -48
-34 -71 -34 -19 0 -21 6 -21 70 l0 70 34 0 c25 0 39 -7 50 -22z"/>
</g>
</svg>
