<?xml version="1.0" standalone="no"?>
<!DOCTYPE svg PUBLIC "-//W3C//DTD SVG 20010904//EN"
 "http://www.w3.org/TR/2001/REC-SVG-20010904/DTD/svg10.dtd">
<svg version="1.0" xmlns="http://www.w3.org/2000/svg"
 width="250.000000pt" height="250.000000pt" viewBox="0 0 250.000000 250.000000"
 preserveAspectRatio="xMidYMid meet">

<g transform="translate(0.000000,250.000000) scale(0.100000,-0.100000)"
fill="#000000" stroke="none">
<path d="M1065 2465 c-129 -20 -232 -52 -350 -109 -263 -128 -447 -310 -575
-571 -139 -282 -165 -575 -80 -885 30 -107 128 -301 204 -401 269 -354 723
-541 1156 -474 139 21 232 50 355 109 263 127 447 310 575 571 173 351 173
729 0 1080 -128 261 -312 444 -575 571 -224 108 -474 147 -710 109z m365 -40
c506 -76 919 -489 995 -995 36 -235 1 -486 -94 -685 l-29 -60 -1 153 -1 152
-155 0 -155 0 0 -55 c0 -49 -2 -55 -20 -55 -29 0 -76 26 -84 45 -13 36 -6 84
17 111 33 38 117 44 201 15 33 -12 63 -18 67 -14 13 15 139 193 139 197 0 8
-126 56 -185 71 -128 32 -305 12 -384 -44 l-31 -22 0 193 c0 204 -6 234 -37
206 -14 -13 -45 -17 -142 -20 l-124 -3 -51 -57 c-52 -59 -82 -72 -93 -40 -3 9
-26 41 -51 70 -32 38 -48 50 -55 43 -14 -14 -252 -14 -278 0 -30 16 -13 29 40
29 53 0 71 13 90 69 33 100 -23 209 -128 246 -35 12 -95 15 -302 15 -155 0
-259 4 -259 9 0 22 168 175 258 235 261 174 546 238 852 191z m-965 -1125
l155 0 0 130 c0 76 4 130 10 130 24 0 62 -26 79 -54 11 -17 25 -60 31 -96 7
-36 14 -75 16 -87 4 -20 10 -23 54 -23 l50 0 0 -169 0 -169 -62 20 c-115 36
-234 9 -324 -74 -76 -70 -127 -195 -97 -237 12 -19 25 -21 104 -21 l89 0 0
-62 c0 -35 -5 -98 -12 -140 -10 -69 -9 -82 7 -118 25 -55 68 -80 138 -80 49 0
61 4 92 31 47 42 61 91 46 165 -16 84 -16 84 30 84 l42 0 -8 -72 c-14 -127
-12 -145 20 -178 25 -26 36 -30 80 -30 44 0 55 4 80 30 32 33 33 47 20 173
l-8 77 81 0 c60 0 85 4 96 16 20 19 20 28 1 91 -29 98 -145 193 -238 193 -33
0 -45 8 -101 65 l-64 65 149 0 149 0 0 173 0 172 58 -64 58 -64 54 68 55 67 3
-176 2 -176 94 0 93 0 7 -47 c14 -109 85 -209 179 -254 83 -39 175 -52 342
-47 163 4 156 12 80 -91 -136 -184 -372 -350 -601 -421 -157 -48 -360 -62
-534 -35 -506 76 -919 489 -995 995 -46 301 16 589 182 838 l58 87 3 -342 2
-343 155 0z m227 533 c22 -20 23 -70 1 -95 -9 -10 -29 -18 -45 -18 -28 0 -28
0 -28 65 0 64 1 65 27 65 14 0 35 -7 45 -17z m143 -906 c47 -23 114 -82 104
-91 -2 -2 -30 -16 -61 -30 -51 -24 -128 -95 -128 -118 0 -9 -194 -9 -286 1
l-61 6 12 47 c45 177 255 270 420 185z m244 -143 c85 -25 150 -96 167 -183 l7
-31 -248 0 -247 0 7 33 c20 96 104 174 205 190 47 8 56 7 109 -9z m-355 -183
c-6 -43 -4 -50 14 -60 11 -6 29 -11 39 -11 15 0 21 -13 30 -69 13 -87 8 -114
-29 -151 -67 -68 -190 -18 -191 77 -1 15 5 63 11 106 7 43 12 96 12 118 l0 39
60 0 61 0 -7 -49z m346 -115 c0 -23 3 -70 6 -103 6 -53 4 -63 -15 -82 -28 -28
-84 -28 -112 0 -19 19 -21 29 -15 82 3 33 6 80 6 103 l0 44 65 0 65 0 0 -44z"/>
</g>
</svg>
